<?xml version="1.0"?>
<svg xmlns="http://www.w3.org/2000/svg" xmlns:xlink="http://www.w3.org/1999/xlink" xmlns:svgjs="http://svgjs.com/svgjs" version="1.1" width="512" height="512" x="0" y="0" viewBox="0 0 512 512" style="enable-background:new 0 0 512 512" xml:space="preserve" class=""><g><g xmlns="http://www.w3.org/2000/svg"><path d="m353.485 374.691 78.549 78.549-103.777 25.944-78.549-78.549z" fill="#ffffff" data-original="#000000" style="" class=""/><path d="m487.667 294.327-78.549-78.549 25.944-103.776 72.546 72.546c3.725 3.725 5.222 9.13 3.944 14.24z" fill="#ffffff" data-original="#000000" style="" class=""/><path d="m453.24 432.034-78.549-78.55 25.944-103.776 78.549 78.549z" fill="#ffffff" data-original="#000000" style="" class=""/><path d="m271.411 250.205 25.944-103.777 78.55 78.55-25.945 103.776z" fill="#ffffff" data-original="#000000" style="" class=""/><path d="m384.387 191.047-78.549-78.549 25.944-103.776 78.549 78.549z" fill="#ffffff" data-original="#000000" style="" class=""/><path d="m276.866 104.732-104.733 26.183 26.183-104.732 104.733-26.183z" fill="#ffffff" data-original="#000000" style="" class=""/><path d="m163.889 163.89 104.733-26.183-26.183 104.732-104.733 26.183z" fill="#ffffff" data-original="#000000" style="" class=""/><path d="m26.183 198.317 104.733-26.183-26.183 104.732-104.732 26.183z" fill="#ffffff" data-original="#000000" style="" class=""/><path d="m69.338 58.428 96.004-24.001-26.183 104.732-104.732 26.183 24.001-96.004c1.343-5.372 5.538-9.567 10.91-10.91z" fill="#ffffff" data-original="#000000" style="" class=""/><path d="m112.498 305.838 78.549 78.549-103.776 25.944-78.549-78.549z" fill="#ffffff" data-original="#000000" style="" class=""/><path d="m224.978 375.905-78.55-78.55 103.777-25.944 78.549 78.549z" fill="#ffffff" data-original="#000000" style="" class=""/><path d="m112.002 435.062 103.776-25.944 78.55 78.549-95.539 23.885c-5.11 1.277-10.516-.22-14.24-3.944z" fill="#ffffff" data-original="#000000" style="" class=""/></g></g></svg>
